<mxfile host="app.diagrams.net" agent="Mozilla/5.0 (Windows NT 10.0; Win64; x64) AppleWebKit/537.36 (KHTML, like Gecko) Chrome/130.0.0.0 Safari/537.36" version="24.8.8">
  <diagram name="Page-1" id="2RgFvJZ56b2tRC2o2Oht">
    <mxGraphModel dx="794" dy="420" grid="1" gridSize="10" guides="1" tooltips="1" connect="1" arrows="1" fold="1" page="1" pageScale="1" pageWidth="850" pageHeight="1100" math="0" shadow="0">
      <root>
        <mxCell id="0" />
        <mxCell id="1" parent="0" />
        <mxCell id="X8aGXZLYWT5mc5Aefz2K-1" value="&amp;lt;&amp;lt;device&amp;gt;&amp;gt;&lt;div&gt;:DB Server&lt;/div&gt;" style="verticalAlign=top;align=left;spacingTop=8;spacingLeft=2;spacingRight=12;shape=cube;size=10;direction=south;fontStyle=0;html=1;whiteSpace=wrap;" parent="1" vertex="1">
          <mxGeometry x="140" y="90" width="180" height="120" as="geometry" />
        </mxCell>
        <mxCell id="X8aGXZLYWT5mc5Aefz2K-2" value="&amp;lt;&amp;lt;device&amp;gt;&amp;gt;&lt;div&gt;:Web Server&lt;/div&gt;" style="verticalAlign=top;align=left;spacingTop=8;spacingLeft=2;spacingRight=12;shape=cube;size=10;direction=south;fontStyle=0;html=1;whiteSpace=wrap;" parent="1" vertex="1">
          <mxGeometry x="510" y="210" width="180" height="120" as="geometry" />
        </mxCell>
        <mxCell id="X8aGXZLYWT5mc5Aefz2K-4" value="" style="endArrow=none;html=1;rounded=0;" parent="1" source="X8aGXZLYWT5mc5Aefz2K-1" target="X8aGXZLYWT5mc5Aefz2K-2" edge="1">
          <mxGeometry relative="1" as="geometry">
            <mxPoint x="300" y="260" as="sourcePoint" />
            <mxPoint x="460" y="260" as="targetPoint" />
          </mxGeometry>
        </mxCell>
        <mxCell id="X8aGXZLYWT5mc5Aefz2K-5" value="&amp;lt;&amp;lt;device&amp;gt;&amp;gt;&lt;div&gt;:Patient Client&lt;/div&gt;" style="verticalAlign=top;align=left;spacingTop=8;spacingLeft=2;spacingRight=12;shape=cube;size=10;direction=south;fontStyle=0;html=1;whiteSpace=wrap;" parent="1" vertex="1">
          <mxGeometry x="110" y="260" width="210" height="150" as="geometry" />
        </mxCell>
        <mxCell id="X8aGXZLYWT5mc5Aefz2K-6" value="" style="endArrow=none;html=1;rounded=0;" parent="1" source="X8aGXZLYWT5mc5Aefz2K-5" target="X8aGXZLYWT5mc5Aefz2K-2" edge="1">
          <mxGeometry relative="1" as="geometry">
            <mxPoint x="330" y="189" as="sourcePoint" />
            <mxPoint x="520" y="251" as="targetPoint" />
          </mxGeometry>
        </mxCell>
        <mxCell id="eUTtkmBerpi-PXUyyY6c-13" value="https:80" style="edgeLabel;html=1;align=center;verticalAlign=middle;resizable=0;points=[];" vertex="1" connectable="0" parent="X8aGXZLYWT5mc5Aefz2K-6">
          <mxGeometry x="0.142" y="-1" relative="1" as="geometry">
            <mxPoint as="offset" />
          </mxGeometry>
        </mxCell>
        <mxCell id="X8aGXZLYWT5mc5Aefz2K-7" value="«artifact»&lt;br&gt;&lt;b&gt;CSV File&lt;/b&gt;" style="html=1;whiteSpace=wrap;" parent="1" vertex="1">
          <mxGeometry x="175" y="140" width="110" height="50" as="geometry" />
        </mxCell>
        <mxCell id="X8aGXZLYWT5mc5Aefz2K-8" value="«artifact»&lt;br&gt;&lt;b&gt;Website&lt;/b&gt;" style="html=1;whiteSpace=wrap;" parent="1" vertex="1">
          <mxGeometry x="545" y="260" width="110" height="50" as="geometry" />
        </mxCell>
        <mxCell id="X8aGXZLYWT5mc5Aefz2K-9" value="«device»&lt;br&gt;&lt;b&gt;Application&lt;/b&gt;" style="html=1;whiteSpace=wrap;align=left;verticalAlign=top;" parent="1" vertex="1">
          <mxGeometry x="120" y="310" width="180" height="90" as="geometry" />
        </mxCell>
        <mxCell id="X8aGXZLYWT5mc5Aefz2K-11" value="«artifact»&lt;br&gt;&lt;b&gt;HTML5&lt;/b&gt;" style="html=1;whiteSpace=wrap;" parent="1" vertex="1">
          <mxGeometry x="180" y="350" width="120" height="50" as="geometry" />
        </mxCell>
        <mxCell id="eUTtkmBerpi-PXUyyY6c-1" value="&amp;lt;&amp;lt;device&amp;gt;&amp;gt;&lt;div&gt;:Nurse Client&lt;/div&gt;" style="verticalAlign=top;align=left;spacingTop=8;spacingLeft=2;spacingRight=12;shape=cube;size=10;direction=south;fontStyle=0;html=1;whiteSpace=wrap;" vertex="1" parent="1">
          <mxGeometry x="377.41" y="433.51" width="210" height="150" as="geometry" />
        </mxCell>
        <mxCell id="eUTtkmBerpi-PXUyyY6c-2" value="«device»&lt;br&gt;&lt;b&gt;Application&lt;/b&gt;" style="html=1;whiteSpace=wrap;align=left;verticalAlign=top;" vertex="1" parent="1">
          <mxGeometry x="387.41" y="483.51" width="180" height="90" as="geometry" />
        </mxCell>
        <mxCell id="eUTtkmBerpi-PXUyyY6c-3" value="«artifact»&lt;br&gt;&lt;b&gt;HTML5&lt;/b&gt;" style="html=1;whiteSpace=wrap;" vertex="1" parent="1">
          <mxGeometry x="447.41" y="523.51" width="120" height="50" as="geometry" />
        </mxCell>
        <mxCell id="eUTtkmBerpi-PXUyyY6c-4" value="" style="endArrow=none;html=1;rounded=0;" edge="1" parent="1" source="eUTtkmBerpi-PXUyyY6c-1" target="X8aGXZLYWT5mc5Aefz2K-2">
          <mxGeometry relative="1" as="geometry">
            <mxPoint x="330" y="327" as="sourcePoint" />
            <mxPoint x="520" y="295" as="targetPoint" />
          </mxGeometry>
        </mxCell>
        <mxCell id="eUTtkmBerpi-PXUyyY6c-14" value="https:80" style="edgeLabel;html=1;align=center;verticalAlign=middle;resizable=0;points=[];" vertex="1" connectable="0" parent="eUTtkmBerpi-PXUyyY6c-4">
          <mxGeometry x="0.082" relative="1" as="geometry">
            <mxPoint as="offset" />
          </mxGeometry>
        </mxCell>
        <mxCell id="eUTtkmBerpi-PXUyyY6c-5" value="&amp;lt;&amp;lt;device&amp;gt;&amp;gt;&lt;div&gt;:General Practitioner Client&lt;/div&gt;" style="verticalAlign=top;align=left;spacingTop=8;spacingLeft=2;spacingRight=12;shape=cube;size=10;direction=south;fontStyle=0;html=1;whiteSpace=wrap;" vertex="1" parent="1">
          <mxGeometry x="600" y="430" width="210" height="150" as="geometry" />
        </mxCell>
        <mxCell id="eUTtkmBerpi-PXUyyY6c-6" value="«device»&lt;br&gt;&lt;b&gt;Application&lt;/b&gt;" style="html=1;whiteSpace=wrap;align=left;verticalAlign=top;" vertex="1" parent="1">
          <mxGeometry x="610" y="480" width="180" height="90" as="geometry" />
        </mxCell>
        <mxCell id="eUTtkmBerpi-PXUyyY6c-7" value="«artifact»&lt;br&gt;&lt;b&gt;HTML5&lt;/b&gt;" style="html=1;whiteSpace=wrap;" vertex="1" parent="1">
          <mxGeometry x="670" y="520" width="120" height="50" as="geometry" />
        </mxCell>
        <mxCell id="eUTtkmBerpi-PXUyyY6c-8" value="" style="endArrow=none;html=1;rounded=0;" edge="1" parent="1" source="eUTtkmBerpi-PXUyyY6c-5" target="X8aGXZLYWT5mc5Aefz2K-2">
          <mxGeometry relative="1" as="geometry">
            <mxPoint x="457" y="440" as="sourcePoint" />
            <mxPoint x="553" y="340" as="targetPoint" />
          </mxGeometry>
        </mxCell>
        <mxCell id="eUTtkmBerpi-PXUyyY6c-15" value="https:80" style="edgeLabel;html=1;align=center;verticalAlign=middle;resizable=0;points=[];" vertex="1" connectable="0" parent="eUTtkmBerpi-PXUyyY6c-8">
          <mxGeometry x="-0.0014" relative="1" as="geometry">
            <mxPoint as="offset" />
          </mxGeometry>
        </mxCell>
        <mxCell id="eUTtkmBerpi-PXUyyY6c-9" value="&amp;lt;&amp;lt;device&amp;gt;&amp;gt;&lt;div&gt;:Emergency Room Manager Client&lt;/div&gt;" style="verticalAlign=top;align=left;spacingTop=8;spacingLeft=2;spacingRight=12;shape=cube;size=10;direction=south;fontStyle=0;html=1;whiteSpace=wrap;" vertex="1" parent="1">
          <mxGeometry x="820" y="310" width="210" height="150" as="geometry" />
        </mxCell>
        <mxCell id="eUTtkmBerpi-PXUyyY6c-10" value="«device»&lt;br&gt;&lt;b&gt;Application&lt;/b&gt;" style="html=1;whiteSpace=wrap;align=left;verticalAlign=top;" vertex="1" parent="1">
          <mxGeometry x="830" y="360" width="180" height="90" as="geometry" />
        </mxCell>
        <mxCell id="eUTtkmBerpi-PXUyyY6c-11" value="«artifact»&lt;br&gt;&lt;b&gt;HTML5&lt;/b&gt;" style="html=1;whiteSpace=wrap;" vertex="1" parent="1">
          <mxGeometry x="890" y="400" width="120" height="50" as="geometry" />
        </mxCell>
        <mxCell id="eUTtkmBerpi-PXUyyY6c-12" value="" style="endArrow=none;html=1;rounded=0;" edge="1" parent="1" source="eUTtkmBerpi-PXUyyY6c-9" target="X8aGXZLYWT5mc5Aefz2K-2">
          <mxGeometry relative="1" as="geometry">
            <mxPoint x="644" y="440" as="sourcePoint" />
            <mxPoint x="623" y="340" as="targetPoint" />
          </mxGeometry>
        </mxCell>
        <mxCell id="eUTtkmBerpi-PXUyyY6c-16" value="https:80" style="edgeLabel;html=1;align=center;verticalAlign=middle;resizable=0;points=[];" vertex="1" connectable="0" parent="eUTtkmBerpi-PXUyyY6c-12">
          <mxGeometry x="0.0317" y="-1" relative="1" as="geometry">
            <mxPoint x="7" y="7" as="offset" />
          </mxGeometry>
        </mxCell>
        <mxCell id="eUTtkmBerpi-PXUyyY6c-17" value="" style="endArrow=none;html=1;rounded=0;" edge="1" parent="1" source="X8aGXZLYWT5mc5Aefz2K-5" target="eUTtkmBerpi-PXUyyY6c-1">
          <mxGeometry relative="1" as="geometry">
            <mxPoint x="115" y="512" as="sourcePoint" />
            <mxPoint x="305" y="480" as="targetPoint" />
          </mxGeometry>
        </mxCell>
        <mxCell id="eUTtkmBerpi-PXUyyY6c-18" value="phone call" style="edgeLabel;html=1;align=center;verticalAlign=middle;resizable=0;points=[];" vertex="1" connectable="0" parent="eUTtkmBerpi-PXUyyY6c-17">
          <mxGeometry x="0.142" y="-1" relative="1" as="geometry">
            <mxPoint x="-2" as="offset" />
          </mxGeometry>
        </mxCell>
      </root>
    </mxGraphModel>
  </diagram>
</mxfile>
